<svg width="226" height="50" viewBox="0 0 226 50" fill="none" xmlns="http://www.w3.org/2000/svg">
<path d="M1 45.1323C8.48219 44.491 14.272 35.6014 16.2316 31.2368C18.6366 31.2368 23.7672 29.9541 25.0499 24.8235C26.3325 19.6929 27.0095 10.3936 27.1876 6.38524C27.8112 5.13821 29.4857 3.01825 31.196 4.51469C33.3337 6.38524 41.0831 31.2368 45.3587 31.2368C49.6342 31.2368 57.3836 29.9007 60.0558 26.1597C62.1936 23.1668 66.8254 22.953 68.8741 23.2202C73.3278 31.1477 83.785 46.6287 89.9846 45.1323C96.1841 43.6359 109.67 40.5896 115.638 39.2535C118.577 39.0753 127.342 39.7345 138.886 43.7962C150.43 47.858 163.648 45.4887 168.815 43.7962C171.22 38.3628 177.205 27.8699 181.909 29.3663C186.612 30.8627 189.747 22.3295 190.727 17.8758C191.261 15.2036 193.346 10.6608 197.407 13.8675C201.469 17.0741 204.444 23.3984 205.424 26.1597C205.958 30.5243 210.822 39.2535 226 39.2535" stroke="black" stroke-width="7"/>
</svg>
